<?xml version="1.0" encoding="UTF-8" standalone="no"?>
<!-- Created with Inkscape (http://www.inkscape.org/) -->

<svg
   xmlns:dc="http://purl.org/dc/elements/1.1/"
   xmlns:cc="http://creativecommons.org/ns#"
   xmlns:rdf="http://www.w3.org/1999/02/22-rdf-syntax-ns#"
   xmlns:svg="http://www.w3.org/2000/svg"
   xmlns="http://www.w3.org/2000/svg"
   xmlns:sodipodi="http://sodipodi.sourceforge.net/DTD/sodipodi-0.dtd"
   xmlns:inkscape="http://www.inkscape.org/namespaces/inkscape"
   width="56.444443mm"
   height="56.444443mm"
   viewBox="0 0 199.9999 200"
   id="svg2"
   version="1.1"
   inkscape:version="0.91 r13725"
   sodipodi:docname="logo2.svg">
  <defs
     id="defs4">
    <inkscape:perspective
       sodipodi:type="inkscape:persp3d"
       inkscape:vp_x="0 : 526.18109 : 1"
       inkscape:vp_y="0 : 999.99995 : 0"
       inkscape:vp_z="744.09415 : 526.18109 : 1"
       inkscape:persp3d-origin="372.047 : 350.7874 : 1"
       id="perspective4230" />
  </defs>
  <sodipodi:namedview
     id="base"
     pagecolor="#ffffff"
     bordercolor="#666666"
     borderopacity="1.0"
     inkscape:pageopacity="0.0"
     inkscape:pageshadow="2"
     inkscape:zoom="2.71529"
     inkscape:cx="-50.35764"
     inkscape:cy="93.056611"
     inkscape:document-units="px"
     inkscape:current-layer="layer1"
     showgrid="false"
     inkscape:window-width="1280"
     inkscape:window-height="703"
     inkscape:window-x="0"
     inkscape:window-y="1"
     inkscape:window-maximized="1"
     showguides="false"
     fit-margin-top="0"
     fit-margin-left="0"
     fit-margin-right="0"
     fit-margin-bottom="0" />
  <metadata
     id="metadata7">
    <rdf:RDF>
      <cc:Work
         rdf:about="">
        <dc:format>image/svg+xml</dc:format>
        <dc:type
           rdf:resource="http://purl.org/dc/dcmitype/StillImage" />
        <dc:title />
      </cc:Work>
    </rdf:RDF>
  </metadata>
  <g
     inkscape:label="Layer 1"
     inkscape:groupmode="layer"
     id="layer1"
     transform="translate(-61.87016,-238.56357)">
    <text
       xml:space="preserve"
       style="font-style:normal;font-variant:normal;font-weight:900;font-stretch:normal;font-size:40px;line-height:125%;font-family:'Arial Black';-inkscape-font-specification:'Arial Black,  Heavy';letter-spacing:0px;word-spacing:0px;fill:#000000;fill-opacity:1;stroke:none;stroke-width:1px;stroke-linecap:butt;stroke-linejoin:miter;stroke-opacity:1"
       x="204.28571"
       y="479.50507"
       id="text3344"
       sodipodi:linespacing="125%"><tspan
         sodipodi:role="line"
         id="tspan3346"
         x="204.28571"
         y="479.50507" /></text>
    <path
       style="opacity:0.8;fill:#cccccc;fill-opacity:1;fill-rule:evenodd;stroke:none;stroke-width:0;stroke-linecap:butt;stroke-linejoin:miter;stroke-miterlimit:4;stroke-dasharray:none;stroke-opacity:1"
       d="m 161.87003,250.43554 a 88.128607,88.127752 0 0 0 -88.128024,88.12717 88.128607,88.127752 0 0 0 88.128024,88.1289 88.128607,88.127752 0 0 0 88.12804,-88.1289 88.128607,88.127752 0 0 0 -88.12804,-88.12717 z m -26.07664,17.30069 a 22.134026,21.805839 0 0 1 16.50714,10.72279 22.134026,21.805839 0 0 1 -0.25939,22.23584 l 9.92574,16.93929 17.86285,-30.48069 a 13.280415,13.083502 0 0 1 1.67388,-8.08748 13.280415,13.083502 0 0 1 11.81404,-6.53814 13.280415,13.083502 0 0 1 6.32722,1.74996 13.280415,13.083502 0 0 1 4.86085,17.87132 13.280415,13.083502 0 0 1 -6.27016,5.46775 l -17.86459,30.48415 19.87913,0 a 22.134026,21.805839 0 0 1 19.38975,-11.34012 22.134026,21.805839 0 0 1 17.67265,8.7221 l -12.27228,0 0,0.0258 a 13.280414,13.0835 0 0 0 -0.53087,-0.0258 13.280414,13.0835 0 0 0 -13.28043,13.08316 13.280414,13.0835 0 0 0 13.28043,13.08489 13.280414,13.0835 0 0 0 0.53087,-0.019 l 0,0.019 12.28092,0 a 22.134026,21.805839 0 0 1 -17.68129,8.72211 22.134026,21.805839 0 0 1 -19.41742,-11.34012 l -19.85318,0 17.86285,30.48069 a 13.280415,13.083502 0 0 1 6.27362,5.47119 13.280415,13.083502 0 0 1 -4.86085,17.87134 13.280415,13.083502 0 0 1 -18.14126,-4.78817 13.280415,13.083502 0 0 1 -1.67042,-8.08403 l -17.86459,-30.48414 -9.94129,16.96349 a 22.134026,21.805839 0 0 1 0.27322,22.21163 22.134026,21.805839 0 0 1 -16.50369,10.71587 l 6.13528,-10.46859 -0.0225,-0.0138 a 13.280413,13.083501 0 0 0 0.28878,-0.44094 13.280413,13.083501 0 0 0 -4.86084,-17.87133 13.280413,13.083501 0 0 0 -18.14126,4.78817 13.280413,13.083501 0 0 0 -0.24901,0.4617 l -0.0173,-0.009 -6.14047,10.47724 a 22.134026,21.805839 0 0 1 1.17415,-19.44662 22.134026,21.805839 0 0 1 19.67508,-10.89572 l 9.92745,-16.93929 -35.7257,0 a 13.280415,13.083502 0 0 1 -7.945777,2.61629 13.280415,13.083502 0 0 1 -13.280421,-13.08317 13.280415,13.083502 0 0 1 13.280421,-13.08316 13.280415,13.083502 0 0 1 7.940587,2.61629 l 35.73089,0 -9.94128,-16.96176 A 22.134026,21.805839 0 0 1 113.96367,300.26398 22.134026,21.805839 0 0 1 112.79471,280.826 l 6.13528,10.4686 0.0224,-0.0104 a 13.280414,13.0835 0 0 0 0.24382,0.46342 13.280414,13.0835 0 0 0 18.14127,4.78989 13.280414,13.0835 0 0 0 4.86083,-17.87305 13.280414,13.0835 0 0 0 -0.28186,-0.44268 l 0.0156,-0.0104 -6.13873,-10.47552 z m 53.68366,11.67731 -3.57776,6.10582 3.57949,6.10409 7.15552,0.002 3.57776,-6.10582 -3.57776,-6.10582 -7.15725,0 z m -93.263816,53.04681 -3.57776,6.10581 3.57776,6.10582 7.155526,0 3.57775,-6.10582 -3.57775,-6.10581 -7.155526,0 z m 100.421066,53.04853 -7.15552,0.002 -3.57949,6.10409 3.57776,6.10582 7.15725,0 3.57776,-6.10582 -3.57776,-6.10582 z"
       id="path3357"
       inkscape:connector-curvature="0" />
    <circle
       style="opacity:0.8;fill:none;fill-opacity:1;fill-rule:evenodd;stroke:#cccccc;stroke-width:7.05;stroke-linecap:butt;stroke-linejoin:miter;stroke-miterlimit:4;stroke-dasharray:none;stroke-opacity:1"
       id="path3360"
       cx="161.87006"
       cy="338.56357"
       r="96.474998" />
  </g>
</svg>
